<svg xmlns="http://www.w3.org/2000/svg" xmlns:xlink="http://www.w3.org/1999/xlink" width="200" zoomAndPan="magnify" viewBox="0 0 150 37.5" height="50" preserveAspectRatio="xMidYMid meet" version="1.0"><defs><g/></defs><g fill="#fbfbfb" fill-opacity="1"><g transform="translate(4.694354, 25.131182)"><g><path d="M 5.109375 0 L 5.109375 -12.875 L 0.96875 -12.875 L 0.96875 0 Z M 6.5625 -7.234375 C 8.234375 -7.25 9.46875 -8.453125 9.46875 -10.046875 C 9.46875 -11.65625 8.234375 -12.859375 6.5625 -12.875 Z M 6.5625 0 C 8.296875 -0.015625 9.59375 -1.25 9.59375 -2.90625 C 9.59375 -4.578125 8.296875 -5.828125 6.5625 -5.84375 Z M 6.5625 0 "/></g></g></g><g fill="#fbfbfb" fill-opacity="1"><g transform="translate(14.72961, 25.131182)"><g><path d="M 6.421875 -8.59375 L 6.421875 0 C 7.6875 -0.03125 8.546875 -0.40625 9.34375 -1.203125 C 10.359375 -2.21875 10.578125 -3.296875 10.578125 -4.65625 L 10.578125 -8.59375 Z M 0.828125 -8.59375 L 0.828125 -4.65625 C 0.828125 -3.296875 1.046875 -2.21875 2.0625 -1.203125 C 2.859375 -0.40625 3.71875 -0.03125 4.984375 0 L 4.984375 -8.59375 Z M 0.828125 -8.59375 "/></g></g></g><g fill="#fbfbfb" fill-opacity="1"><g transform="translate(26.135063, 25.131182)"><g><path d="M 5.0625 0 L 5.0625 -8.21875 C 5.0625 -9.578125 4.84375 -10.65625 3.828125 -11.671875 C 3.03125 -12.46875 2.15625 -12.828125 0.90625 -12.875 L 0.90625 0 Z M 5.0625 0 "/></g></g></g><g fill="#fbfbfb" fill-opacity="1"><g transform="translate(32.021127, 25.131182)"><g><path d="M 5.0625 0 L 5.0625 -8.21875 C 5.0625 -9.578125 4.84375 -10.65625 3.828125 -11.671875 C 3.03125 -12.46875 2.15625 -12.828125 0.90625 -12.875 L 0.90625 0 Z M 5.0625 0 "/></g></g></g><g fill="#fbfbfb" fill-opacity="1"><g transform="translate(37.907191, 25.131182)"><g><path d="M 6.828125 -6.296875 L 6.828125 -8.59375 L 4.53125 -8.59375 Z M 3.34375 -2.875 L 3.34375 -8.59375 C 1.625 -8.59375 0.34375 -7.375 0.34375 -5.734375 C 0.34375 -4.09375 1.625 -2.875 3.296875 -2.875 Z M 4.828125 0 C 6.5 0 7.78125 -1.21875 7.78125 -2.859375 C 7.78125 -4.5 6.5 -5.71875 4.78125 -5.71875 L 4.78125 0 Z M 4.828125 0 "/></g></g></g><g fill="#fbfbfb" fill-opacity="1"><g transform="translate(46.031888, 25.131182)"><g/></g></g><g fill="#fbfbfb" fill-opacity="1"><g transform="translate(52.110936, 25.131182)"><g><path d="M 13.78125 -8.59375 L 7.8125 -8.59375 L 10.8125 -5.609375 Z M 11.484375 -2.875 L 5.75 -8.59375 L 0 -8.59375 L 8.609375 0 Z M 11.484375 -2.875 "/></g></g></g><g fill="#fbfbfb" fill-opacity="1"><g transform="translate(65.890116, 25.131182)"><g><path d="M 17.34375 -10.015625 L 14.484375 -12.875 L 0.21875 1.390625 L 3.0625 4.25 Z M 17.34375 -10.015625 "/></g></g></g><g fill="#fbfbfb" fill-opacity="1"><g transform="translate(83.451814, 25.131182)"><g><path d="M 6.828125 -6.296875 L 6.828125 -8.59375 L 4.53125 -8.59375 Z M 3.34375 -2.875 L 3.34375 -8.59375 C 1.625 -8.59375 0.34375 -7.375 0.34375 -5.734375 C 0.34375 -4.09375 1.625 -2.875 3.296875 -2.875 Z M 4.828125 0 C 6.5 0 7.78125 -1.21875 7.78125 -2.859375 C 7.78125 -4.5 6.5 -5.71875 4.78125 -5.71875 L 4.78125 0 Z M 4.828125 0 "/></g></g></g><g fill="#fbfbfb" fill-opacity="1"><g transform="translate(91.576507, 25.131182)"><g/></g></g><g fill="#fbfbfb" fill-opacity="1"><g transform="translate(97.655555, 25.131182)"><g><path d="M 5.109375 0 L 5.109375 -12.875 L 0.96875 -12.875 L 0.96875 0 Z M 6.5625 -7.234375 C 8.234375 -7.25 9.46875 -8.453125 9.46875 -10.046875 C 9.46875 -11.65625 8.234375 -12.859375 6.5625 -12.875 Z M 6.5625 0 C 8.296875 -0.015625 9.59375 -1.25 9.59375 -2.90625 C 9.59375 -4.578125 8.296875 -5.828125 6.5625 -5.84375 Z M 6.5625 0 "/></g></g></g><g fill="#fbfbfb" fill-opacity="1"><g transform="translate(107.690814, 25.131182)"><g><path d="M 9.328125 -4.28125 L 6.09375 -7.5 L 6.09375 -4.28125 Z M 0.34375 -4.296875 C 0.34375 -1.953125 2.203125 -0.109375 4.65625 0 L 4.65625 -8.59375 C 2.203125 -8.46875 0.34375 -6.640625 0.34375 -4.296875 Z M 0.34375 -4.296875 "/></g></g></g><g fill="#fbfbfb" fill-opacity="1"><g transform="translate(116.683949, 25.131182)"><g><path d="M 6.09375 -8.59375 L 6.09375 -4.65625 C 6.09375 -3.296875 6.3125 -2.21875 7.328125 -1.203125 C 8.125 -0.40625 9 -0.03125 10.25 0 L 10.25 -8.59375 Z M 0.34375 -4.296875 C 0.34375 -6.640625 2.203125 -8.46875 4.65625 -8.59375 L 4.65625 0 C 2.203125 -0.109375 0.34375 -1.953125 0.34375 -4.296875 Z M 0.34375 -4.296875 "/></g></g></g><g fill="#fbfbfb" fill-opacity="1"><g transform="translate(127.838524, 25.131182)"><g><path d="M 5.0625 0 L 5.0625 -8.59375 L 0.90625 -8.59375 L 0.90625 0 Z M 6.5 -8.59375 L 6.5 -5.359375 L 9.71875 -8.59375 Z M 6.5 -8.59375 "/></g></g></g><g fill="#fbfbfb" fill-opacity="1"><g transform="translate(137.179031, 25.131182)"><g><path d="M 6.828125 -6.296875 L 6.828125 -8.59375 L 4.53125 -8.59375 Z M 3.34375 -2.875 L 3.34375 -8.59375 C 1.625 -8.59375 0.34375 -7.375 0.34375 -5.734375 C 0.34375 -4.09375 1.625 -2.875 3.296875 -2.875 Z M 4.828125 0 C 6.5 0 7.78125 -1.21875 7.78125 -2.859375 C 7.78125 -4.5 6.5 -5.71875 4.78125 -5.71875 L 4.78125 0 Z M 4.828125 0 "/></g></g></g></svg>