<svg xmlns="http://www.w3.org/2000/svg" xmlns:xlink="http://www.w3.org/1999/xlink" width="1024" zoomAndPan="magnify" viewBox="0 0 768 767.999994" height="1024" preserveAspectRatio="xMidYMid meet" version="1.0"><defs><clipPath id="ea97b13849"><path d="M 303 141 L 679 141 L 679 638.65625 L 303 638.65625 Z M 303 141 " clip-rule="nonzero"/></clipPath><clipPath id="02eee3b5ea"><path d="M 87 147 L 408 147 L 408 638.65625 L 87 638.65625 Z M 87 147 " clip-rule="nonzero"/></clipPath></defs><g clip-path="url(#ea97b13849)"><path fill="#cb0a27" d="M 316.128906 165.265625 C 416.933594 150.589844 521.296875 169.460938 612.460938 221.453125 C 612.460938 238.851562 611.414062 255.625 609.316406 272.394531 C 613.507812 276.167969 622.941406 276.589844 628.808594 278.265625 C 630.902344 259.816406 631.949219 240.949219 631.949219 221.660156 C 631.949219 214.324219 628.808594 208.035156 622.519531 204.890625 C 524.441406 148.703125 412.113281 129.417969 303.972656 147.65625 C 308.164062 153.316406 312.355469 158.976562 316.128906 165.265625 Z M 518.15625 270.71875 C 485.042969 246.609375 475.191406 253.316406 487.136719 291.683594 C 491.328125 289.585938 494.054688 285.394531 494.472656 280.570312 C 495.519531 276.378906 493.84375 271.136719 490.699219 267.992188 C 489.234375 259.816406 498.246094 260.238281 518.15625 270.71875 Z M 407.292969 489.171875 C 407.921875 545.355469 399.957031 595.253906 383.191406 638.648438 C 386.335938 638.648438 390.105469 637.601562 393.25 635.925781 C 477.707031 586.65625 543.304688 514.117188 584.796875 428.582031 C 577.882812 426.488281 572.222656 423.761719 566.984375 419.566406 C 547.074219 461.078125 520.878906 499.445312 489.863281 533.40625 C 433.699219 479.316406 488.1875 401.121094 564.261719 394.828125 C 568.03125 401.75 572.644531 406.988281 577.882812 410.132812 C 596.324219 421.664062 625.664062 422.710938 629.226562 396.925781 C 629.855469 391.683594 626.082031 385.816406 620.84375 384.765625 C 619.167969 384.136719 618.121094 383.71875 617.070312 382.671875 C 613.929688 379.527344 616.023438 368.414062 617.699219 363.171875 C 641.800781 369.460938 691.050781 342.628906 675.960938 317.46875 C 672.816406 312.230469 666.949219 310.132812 661.289062 309.503906 C 648.714844 296.296875 621.890625 290.007812 604.707031 286.863281 C 585.21875 266.316406 541.835938 252.6875 516.476562 250.171875 C 506 242.207031 470.371094 230.257812 466.601562 251.851562 C 428.878906 254.996094 374.179688 259.816406 341.277344 279.734375 C 344.421875 281.828125 364.957031 291.265625 368.101562 293.988281 C 398.070312 276.589844 429.507812 266.734375 463.667969 263.589844 C 464.296875 274.074219 469.953125 296.085938 476.871094 305.519531 C 459.476562 246.820312 476.871094 237.804688 520.460938 261.914062 C 554.621094 266.734375 599.675781 288.75 599.257812 297.554688 C 593.390625 305.519531 569.917969 283.925781 561.535156 299.648438 C 564.679688 295.875 573.691406 304.472656 584.167969 307.617188 C 580.398438 308.664062 577.253906 308.664062 573.691406 308.246094 C 586.894531 312.4375 599.46875 309.292969 608.898438 299.230469 C 635.722656 305.101562 651.441406 312.4375 656.679688 320.824219 C 636.769531 331.308594 638.867188 336.546875 662.546875 337.597656 C 646.203125 354.367188 629.015625 358.140625 611.203125 348.707031 C 592.34375 360.867188 551.894531 406.359375 521.925781 341.371094 C 519.203125 353.949219 522.976562 374.914062 535.550781 383.300781 C 495.519531 377.847656 416.304688 443.46875 407.292969 489.171875 Z M 598.421875 403.007812 C 590.039062 397.765625 586.265625 382.460938 607.429688 359.398438 C 603.238281 374.703125 603.660156 385.1875 609.527344 391.476562 L 616.441406 384.558594 L 615.8125 395.039062 C 616.863281 395.667969 617.492188 395.667969 617.910156 396.085938 C 617.28125 402.378906 612.042969 405.523438 606.382812 405.523438 L 605.753906 392.3125 Z M 598.421875 403.007812 " fill-opacity="1" fill-rule="evenodd"/></g><g clip-path="url(#02eee3b5ea)"><path fill="#007664" d="M 153.921875 221.453125 C 204.847656 192.519531 259.964844 173.652344 316.128906 165.265625 C 312.355469 158.976562 308.164062 153.105469 303.972656 147.445312 C 248.4375 156.460938 194.367188 175.75 144.070312 204.679688 C 137.785156 207.824219 134.011719 214.113281 134.011719 221.453125 C 134.011719 247.65625 136.109375 273.445312 140.300781 298.601562 L 141.976562 300.277344 C 146.167969 293.359375 151.40625 287.699219 158.324219 283.925781 C 155.597656 263.382812 153.921875 242.417969 153.921875 221.453125 Z M 407.292969 489.171875 C 397.234375 421.035156 374.179688 387.910156 340.648438 352.273438 C 354.269531 352.902344 367.894531 350.59375 377.953125 344.304688 C 382.773438 341.160156 384.238281 334.871094 381.722656 329.628906 C 366.425781 299.230469 340.230469 286.023438 308.792969 284.976562 C 311.519531 265.476562 309.84375 245.140625 297.269531 229.835938 C 273.167969 199.4375 222.242188 204.050781 188.710938 209.921875 C 182.84375 210.96875 179.28125 215.792969 179.28125 221.453125 C 179.28125 227.320312 183.472656 231.515625 188.710938 232.5625 C 201.914062 234.660156 232.300781 239.902344 237.539062 254.574219 C 240.265625 261.496094 236.910156 269.25 233.769531 276.589844 C 210.714844 267.15625 182.421875 292.3125 172.363281 311.808594 C 171.316406 305.519531 172.992188 298.601562 177.601562 291.894531 C 162.933594 293.570312 153.921875 305.101562 148.261719 317.679688 C 127.304688 316.003906 121.019531 293.988281 118.292969 276.167969 C 117.246094 271.347656 113.476562 267.785156 108.863281 266.734375 C 103.625 266.105469 98.804688 268.832031 96.710938 273.652344 C 76.800781 316.210938 91.46875 346.609375 129.191406 364.429688 C 126.050781 372.816406 126.46875 382.25 130.867188 391.265625 L 121.859375 416.421875 C 101.527344 418.730469 96.289062 444.933594 113.054688 455.417969 C 115.78125 470.09375 124.582031 481.203125 140.300781 480.574219 C 142.394531 483.71875 145.121094 485.816406 148.683594 487.914062 C 171.316406 499.445312 217.421875 451.226562 215.746094 514.746094 C 222.660156 437.597656 157.066406 498.394531 147.007812 469.042969 C 154.96875 467.996094 161.257812 462.753906 165.867188 453.320312 C 186.40625 469.042969 213.648438 455 246.761719 410.34375 C 245.085938 423.972656 233.558594 440.742188 212.183594 460.238281 C 280.292969 457.09375 306.070312 420.40625 288.675781 349.964844 C 314.871094 379.316406 323.882812 417.679688 314.871094 465.898438 C 314.871094 430.261719 311.726562 409.296875 305.441406 401.957031 C 303.765625 438.644531 296.429688 469.675781 282.386719 494.832031 C 288.257812 469.042969 290.351562 451.855469 288.675781 442.839844 C 262.898438 474.285156 256.609375 510.554688 264.574219 549.339844 C 296.011719 582.882812 332.265625 612.234375 373.132812 635.925781 C 376.277344 637.601562 379.417969 638.648438 383.191406 638.648438 C 399.957031 595.042969 407.921875 545.355469 407.292969 489.171875 Z M 148.683594 330.679688 C 157.066406 349.546875 134.433594 364.851562 139.671875 383.089844 C 134.433594 376.171875 134.433594 367.367188 140.300781 356.882812 C 101.527344 340.53125 85.8125 312.230469 106.347656 279.734375 C 104.253906 295.875 115.152344 330.679688 148.683594 330.679688 Z M 167.125 418.730469 C 175.089844 423.972656 177.601562 434.035156 173.410156 442.417969 C 175.089844 434.453125 171.316406 426.695312 163.980469 423.550781 C 156.644531 420.40625 148.261719 422.921875 144.070312 429.839844 C 140.300781 428.164062 130.449219 429.839844 128.773438 429.210938 L 132.964844 419.148438 C 137.785156 418.519531 140.929688 419.777344 142.394531 421.246094 C 149.3125 414.535156 159.160156 413.488281 167.125 418.730469 Z M 229.996094 340.53125 C 222.660156 357.304688 226.851562 365.269531 205.265625 368.832031 C 202.75 348.496094 211.132812 346.402344 229.996094 340.53125 Z M 160.207031 434.453125 C 162.933594 437.597656 163.351562 442.839844 161.257812 446.613281 C 162.304688 434.453125 150.777344 434.035156 150.777344 439.273438 C 150.777344 440.953125 151.824219 442 153.503906 442.417969 C 154.132812 444.515625 152.453125 446.613281 150.359375 446.613281 C 147.214844 445.5625 145.121094 443.46875 144.492188 440.324219 C 144.070312 431.9375 154.550781 428.792969 160.207031 434.453125 Z M 352.804688 329 C 332.265625 334.871094 324.511719 333.824219 328.074219 325.226562 C 323.882812 320.40625 310.679688 317.261719 288.675781 316.210938 C 310.261719 310.132812 331.425781 314.324219 352.804688 329 Z M 369.148438 329.628906 C 344.421875 301.746094 311.9375 298.601562 233.347656 312.230469 C 284.273438 240.320312 222.871094 226.691406 192.484375 220.824219 C 275.890625 206.566406 310.46875 231.933594 295.382812 296.925781 C 329.121094 293.78125 353.851562 304.890625 369.148438 329.628906 Z M 369.148438 329.628906 " fill-opacity="1" fill-rule="evenodd"/></g></svg>