<svg xmlns="http://www.w3.org/2000/svg" xmlns:xlink="http://www.w3.org/1999/xlink" width="300" zoomAndPan="magnify" viewBox="0 0 224.87999 225" height="300" preserveAspectRatio="xMidYMid meet" version="1.0"><defs><clipPath id="908108aa49"><path d="M 89 41 L 199 41 L 199 187.121094 L 89 187.121094 Z M 89 41 " clip-rule="nonzero"/></clipPath><clipPath id="4d47ef9c81"><path d="M 25 43 L 120 43 L 120 187.121094 L 25 187.121094 Z M 25 43 " clip-rule="nonzero"/></clipPath><clipPath id="01c78a858a"><path d="M 94.375 157.179688 L 95.824219 157.179688 L 95.824219 158.429688 L 94.375 158.429688 Z M 94.375 157.179688 " clip-rule="nonzero"/></clipPath><clipPath id="5d4934a4d8"><path d="M 95.800781 157.625 C 95.199219 158.675781 94.597656 158.449219 94.449219 158.226562 C 94.300781 158 94.449219 157.402344 94.597656 157.25 C 94.824219 157.101562 95.574219 157.324219 95.574219 157.324219 " clip-rule="nonzero"/></clipPath></defs><g clip-path="url(#908108aa49)"><path fill="#ff3131" d="M 92.585938 48.449219 C 122.105469 44.152344 152.671875 49.675781 179.375 64.898438 C 179.375 69.992188 179.066406 74.902344 178.453125 79.8125 C 179.679688 80.917969 182.441406 81.039062 184.160156 81.53125 C 184.773438 76.128906 185.082031 70.605469 185.082031 64.957031 C 185.082031 62.8125 184.160156 60.96875 182.320312 60.046875 C 153.59375 43.597656 120.695312 37.953125 89.023438 43.292969 C 90.25 44.949219 91.480469 46.605469 92.585938 48.449219 Z M 151.753906 79.320312 C 142.054688 72.261719 139.171875 74.226562 142.667969 85.460938 C 143.894531 84.84375 144.695312 83.617188 144.816406 82.207031 C 145.125 80.980469 144.632812 79.445312 143.710938 78.523438 C 143.28125 76.128906 145.921875 76.253906 151.753906 79.320312 Z M 119.285156 143.277344 C 119.46875 159.726562 117.136719 174.335938 112.226562 187.039062 C 113.144531 187.039062 114.25 186.734375 115.171875 186.242188 C 139.90625 171.820312 159.117188 150.582031 171.269531 125.539062 C 169.246094 124.925781 167.589844 124.128906 166.054688 122.898438 C 160.222656 135.054688 152.550781 146.285156 143.46875 156.230469 C 127.015625 140.394531 142.976562 117.5 165.257812 115.65625 C 166.359375 117.683594 167.710938 119.21875 169.246094 120.136719 C 174.648438 123.515625 183.238281 123.820312 184.285156 116.269531 C 184.46875 114.738281 183.363281 113.019531 181.828125 112.710938 C 181.335938 112.527344 181.03125 112.40625 180.722656 112.097656 C 179.804688 111.175781 180.417969 107.921875 180.90625 106.390625 C 187.964844 108.230469 202.390625 100.375 197.972656 93.007812 C 197.050781 91.472656 195.332031 90.859375 193.675781 90.675781 C 189.992188 86.808594 182.136719 84.96875 177.101562 84.046875 C 171.394531 78.03125 158.6875 74.042969 151.261719 73.304688 C 148.191406 70.972656 137.757812 67.476562 136.652344 73.796875 C 125.605469 74.71875 109.585938 76.128906 99.949219 81.960938 C 100.871094 82.574219 106.886719 85.335938 107.804688 86.132812 C 116.582031 81.039062 125.789062 78.15625 135.792969 77.234375 C 135.980469 80.304688 137.636719 86.75 139.660156 89.511719 C 134.566406 72.324219 139.660156 69.683594 152.429688 76.742188 C 162.433594 78.15625 175.628906 84.601562 175.507812 87.179688 C 173.789062 89.511719 166.914062 83.1875 164.457031 87.792969 C 165.378906 86.6875 168.019531 89.203125 171.085938 90.125 C 169.980469 90.429688 169.0625 90.429688 168.019531 90.308594 C 171.886719 91.535156 175.566406 90.613281 178.328125 87.667969 C 186.1875 89.386719 190.789062 91.535156 192.324219 93.992188 C 186.492188 97.058594 187.105469 98.59375 194.042969 98.902344 C 189.253906 103.8125 184.222656 104.917969 179.003906 102.152344 C 173.480469 105.714844 161.636719 119.035156 152.859375 100.007812 C 152.058594 103.6875 153.164062 109.828125 156.847656 112.28125 C 145.125 110.6875 121.921875 129.898438 119.285156 143.277344 Z M 175.261719 118.050781 C 172.804688 116.515625 171.699219 112.035156 177.898438 105.285156 C 176.671875 109.765625 176.796875 112.835938 178.515625 114.675781 L 180.539062 112.648438 L 180.355469 115.71875 C 180.664062 115.902344 180.847656 115.902344 180.96875 116.027344 C 180.785156 117.867188 179.25 118.789062 177.59375 118.789062 L 177.410156 114.921875 Z M 175.261719 118.050781 " fill-opacity="1" fill-rule="evenodd"/></g><g clip-path="url(#4d47ef9c81)"><path fill="#00bf63" d="M 45.078125 64.898438 C 59.992188 56.425781 76.132812 50.902344 92.585938 48.449219 C 91.480469 46.605469 90.25 44.886719 89.023438 43.230469 C 72.757812 45.871094 56.921875 51.515625 42.191406 59.988281 C 40.351562 60.90625 39.246094 62.75 39.246094 64.898438 C 39.246094 72.570312 39.859375 80.121094 41.085938 87.484375 L 41.578125 87.976562 C 42.804688 85.949219 44.339844 84.292969 46.367188 83.1875 C 45.566406 77.171875 45.078125 71.035156 45.078125 64.898438 Z M 119.285156 143.277344 C 116.335938 123.328125 109.585938 113.632812 99.765625 103.199219 C 103.753906 103.382812 107.746094 102.707031 110.691406 100.867188 C 112.101562 99.945312 112.53125 98.101562 111.796875 96.570312 C 107.316406 87.667969 99.640625 83.800781 90.4375 83.496094 C 91.234375 77.785156 90.742188 71.832031 87.058594 67.351562 C 80 58.453125 65.085938 59.804688 55.265625 61.523438 C 53.546875 61.828125 52.503906 63.242188 52.503906 64.898438 C 52.503906 66.617188 53.730469 67.84375 55.265625 68.152344 C 59.132812 68.765625 68.03125 70.296875 69.566406 74.59375 C 70.363281 76.621094 69.382812 78.890625 68.460938 81.039062 C 61.710938 78.277344 53.425781 85.644531 50.476562 91.351562 C 50.171875 89.511719 50.664062 87.484375 52.011719 85.519531 C 47.714844 86.011719 45.078125 89.386719 43.417969 93.070312 C 37.28125 92.578125 35.441406 86.132812 34.644531 80.917969 C 34.335938 79.503906 33.230469 78.460938 31.878906 78.15625 C 30.347656 77.972656 28.933594 78.769531 28.320312 80.179688 C 22.488281 92.640625 26.785156 101.539062 37.835938 106.757812 C 36.914062 109.210938 37.035156 111.976562 38.324219 114.613281 L 35.6875 121.980469 C 29.734375 122.65625 28.199219 130.328125 33.109375 133.394531 C 33.90625 137.691406 36.484375 140.945312 41.085938 140.761719 C 41.703125 141.683594 42.5 142.296875 43.542969 142.910156 C 50.171875 146.285156 63.675781 132.167969 63.183594 150.765625 C 65.210938 128.179688 45.996094 145.976562 43.050781 137.386719 C 45.382812 137.078125 47.226562 135.542969 48.574219 132.78125 C 54.589844 137.386719 62.570312 133.273438 72.269531 120.199219 C 71.777344 124.1875 68.402344 129.097656 62.140625 134.808594 C 82.089844 133.886719 89.636719 123.144531 84.542969 102.523438 C 92.214844 111.117188 94.855469 122.347656 92.214844 136.464844 C 92.214844 126.03125 91.296875 119.894531 89.453125 117.746094 C 88.960938 128.484375 86.816406 137.570312 82.703125 144.933594 C 84.421875 137.386719 85.035156 132.351562 84.542969 129.714844 C 76.992188 138.921875 75.152344 149.539062 77.484375 160.894531 C 86.691406 170.714844 97.308594 179.308594 109.277344 186.242188 C 110.199219 186.734375 111.121094 187.039062 112.226562 187.039062 C 117.136719 174.273438 119.46875 159.726562 119.285156 143.277344 Z M 43.542969 96.875 C 45.996094 102.398438 39.367188 106.878906 40.902344 112.21875 C 39.367188 110.195312 39.367188 107.617188 41.085938 104.546875 C 29.734375 99.761719 25.128906 91.472656 31.144531 81.960938 C 30.53125 86.6875 33.722656 96.875 43.542969 96.875 Z M 48.945312 122.65625 C 51.277344 124.1875 52.011719 127.136719 50.785156 129.589844 C 51.277344 127.257812 50.171875 124.988281 48.023438 124.066406 C 45.875 123.144531 43.417969 123.882812 42.191406 125.90625 C 41.085938 125.417969 38.203125 125.90625 37.710938 125.722656 L 38.9375 122.777344 C 40.351562 122.59375 41.273438 122.960938 41.703125 123.390625 C 43.726562 121.425781 46.613281 121.121094 48.945312 122.65625 Z M 67.359375 99.761719 C 65.210938 104.671875 66.4375 107.003906 60.113281 108.046875 C 59.378906 102.09375 61.832031 101.480469 67.359375 99.761719 Z M 46.917969 127.257812 C 47.714844 128.179688 47.839844 129.714844 47.226562 130.816406 C 47.53125 127.257812 44.15625 127.136719 44.15625 128.667969 C 44.15625 129.160156 44.464844 129.46875 44.953125 129.589844 C 45.136719 130.203125 44.648438 130.816406 44.035156 130.816406 C 43.113281 130.511719 42.5 129.898438 42.316406 128.976562 C 42.191406 126.519531 45.261719 125.601562 46.917969 127.257812 Z M 103.324219 96.382812 C 97.308594 98.101562 95.039062 97.796875 96.082031 95.28125 C 94.855469 93.867188 90.988281 92.949219 84.542969 92.640625 C 90.867188 90.859375 97.066406 92.089844 103.324219 96.382812 Z M 108.113281 96.570312 C 100.871094 88.40625 91.355469 87.484375 68.339844 91.472656 C 83.253906 70.421875 65.269531 66.433594 56.371094 64.714844 C 80.800781 60.539062 90.925781 67.964844 86.507812 86.992188 C 96.390625 86.074219 103.632812 89.324219 108.113281 96.570312 Z M 108.113281 96.570312 " fill-opacity="1" fill-rule="evenodd"/></g><g clip-path="url(#01c78a858a)"><g clip-path="url(#5d4934a4d8)"><path fill="#00bf63" d="M 91.453125 154.253906 L 98.863281 154.253906 L 98.863281 161.523438 L 91.453125 161.523438 Z M 91.453125 154.253906 " fill-opacity="1" fill-rule="nonzero"/></g></g></svg>