<svg xmlns="http://www.w3.org/2000/svg" xmlns:xlink="http://www.w3.org/1999/xlink" width="100" zoomAndPan="magnify" viewBox="0 0 75 37.5" height="50" preserveAspectRatio="xMidYMid meet" version="1.0"><defs><g/></defs><g fill="#fbfbfb" fill-opacity="1"><g transform="translate(8.037456, 27.632031)"><g><path d="M 6.546875 0 L 6.546875 -16.484375 L 1.234375 -16.484375 L 1.234375 0 Z M 8.40625 -9.265625 C 10.5625 -9.296875 12.140625 -10.828125 12.140625 -12.875 C 12.140625 -14.9375 10.5625 -16.46875 8.40625 -16.484375 Z M 8.40625 0 C 10.625 -0.03125 12.28125 -1.609375 12.28125 -3.734375 C 12.28125 -5.859375 10.625 -7.46875 8.40625 -7.484375 Z M 8.40625 0 "/></g></g></g><g fill="#fbfbfb" fill-opacity="1"><g transform="translate(20.888435, 27.632031)"><g/></g></g><g fill="#fbfbfb" fill-opacity="1"><g transform="translate(28.673162, 27.632031)"><g><path d="M 17.65625 -11 L 10.015625 -11 L 13.84375 -7.1875 Z M 14.703125 -3.6875 L 7.359375 -11 L 0 -11 L 11.03125 0 Z M 14.703125 -3.6875 "/></g></g></g><g fill="#fbfbfb" fill-opacity="1"><g transform="translate(46.318545, 27.632031)"><g/></g></g><g fill="#fbfbfb" fill-opacity="1"><g transform="translate(54.103272, 27.632031)"><g><path d="M 6.546875 0 L 6.546875 -16.484375 L 1.234375 -16.484375 L 1.234375 0 Z M 8.40625 -9.265625 C 10.5625 -9.296875 12.140625 -10.828125 12.140625 -12.875 C 12.140625 -14.9375 10.5625 -16.46875 8.40625 -16.484375 Z M 8.40625 0 C 10.625 -0.03125 12.28125 -1.609375 12.28125 -3.734375 C 12.28125 -5.859375 10.625 -7.46875 8.40625 -7.484375 Z M 8.40625 0 "/></g></g></g></svg>