<svg xmlns="http://www.w3.org/2000/svg" xmlns:xlink="http://www.w3.org/1999/xlink" width="300" zoomAndPan="magnify" viewBox="0 0 224.87999 225" height="300" preserveAspectRatio="xMidYMid meet" version="1.0"><defs><clipPath id="e62f600a08"><path d="M 89 41 L 199 41 L 199 187.121094 L 89 187.121094 Z M 89 41 " clip-rule="nonzero"/></clipPath><clipPath id="a231cf61ec"><path d="M 25 43 L 120 43 L 120 187.121094 L 25 187.121094 Z M 25 43 " clip-rule="nonzero"/></clipPath><clipPath id="0e01b891e1"><path d="M 93.503906 151.257812 L 94.925781 151.257812 L 94.925781 152.476562 L 93.503906 152.476562 Z M 93.503906 151.257812 " clip-rule="nonzero"/></clipPath><clipPath id="ad3dcfc802"><path d="M 94.898438 151.703125 C 94.300781 152.679688 93.699219 152.527344 93.550781 152.304688 C 93.476562 152.078125 93.550781 151.480469 93.773438 151.328125 C 93.925781 151.179688 94.75 151.402344 94.75 151.402344 " clip-rule="nonzero"/></clipPath><clipPath id="eb1a7674a5"><path d="M 106.25 167.074219 L 107.667969 167.074219 L 107.667969 168.292969 L 106.25 168.292969 Z M 106.25 167.074219 " clip-rule="nonzero"/></clipPath><clipPath id="273e549e0e"><path d="M 107.640625 167.519531 C 107.042969 168.496094 106.441406 168.34375 106.292969 168.121094 C 106.21875 167.894531 106.292969 167.296875 106.519531 167.144531 C 106.667969 166.996094 107.492188 167.144531 107.492188 167.144531 " clip-rule="nonzero"/></clipPath></defs><g clip-path="url(#e62f600a08)"><path fill="#cb0a27" d="M 92.585938 48.453125 C 122.105469 44.15625 152.671875 49.683594 179.375 64.914062 C 179.375 70.007812 179.066406 74.921875 178.453125 79.835938 C 179.679688 80.941406 182.441406 81.0625 184.160156 81.554688 C 184.773438 76.152344 185.082031 70.625 185.082031 64.972656 C 185.082031 62.824219 184.160156 60.980469 182.320312 60.0625 C 153.59375 43.601562 120.695312 37.953125 89.023438 43.296875 C 90.25 44.953125 91.480469 46.613281 92.585938 48.453125 Z M 151.753906 79.34375 C 142.054688 72.28125 139.171875 74.246094 142.667969 85.484375 C 143.894531 84.871094 144.695312 83.644531 144.816406 82.230469 C 145.125 81.003906 144.632812 79.46875 143.710938 78.546875 C 143.28125 76.152344 145.921875 76.273438 151.753906 79.34375 Z M 119.285156 143.335938 C 119.46875 159.792969 117.136719 174.410156 112.226562 187.121094 C 113.144531 187.121094 114.25 186.816406 115.171875 186.324219 C 139.90625 171.890625 159.117188 150.644531 171.269531 125.585938 C 169.246094 124.972656 167.589844 124.175781 166.054688 122.945312 C 160.222656 135.105469 152.550781 146.34375 143.46875 156.292969 C 127.015625 140.449219 142.976562 117.542969 165.257812 115.699219 C 166.359375 117.726562 167.710938 119.261719 169.246094 120.183594 C 174.648438 123.5625 183.238281 123.867188 184.285156 116.3125 C 184.46875 114.777344 183.363281 113.058594 181.828125 112.753906 C 181.335938 112.566406 181.03125 112.445312 180.722656 112.136719 C 179.804688 111.21875 180.417969 107.960938 180.90625 106.425781 C 187.964844 108.269531 202.390625 100.410156 197.972656 93.039062 C 197.050781 91.503906 195.332031 90.890625 193.675781 90.707031 C 189.992188 86.835938 182.136719 84.992188 177.101562 84.074219 C 171.394531 78.054688 158.6875 74.0625 151.261719 73.324219 C 148.191406 70.992188 137.757812 67.492188 136.652344 73.816406 C 125.605469 74.738281 109.585938 76.152344 99.949219 81.984375 C 100.871094 82.597656 106.886719 85.363281 107.804688 86.160156 C 116.582031 81.0625 125.789062 78.175781 135.792969 77.257812 C 135.980469 80.328125 137.636719 86.773438 139.660156 89.539062 C 134.566406 72.34375 139.660156 69.703125 152.429688 76.765625 C 162.433594 78.175781 175.628906 84.625 175.507812 87.203125 C 173.789062 89.539062 166.914062 83.214844 164.457031 87.820312 C 165.378906 86.714844 168.019531 89.230469 171.085938 90.152344 C 169.980469 90.460938 169.0625 90.460938 168.019531 90.335938 C 171.886719 91.566406 175.566406 90.644531 178.328125 87.695312 C 186.1875 89.414062 190.789062 91.566406 192.324219 94.023438 C 186.492188 97.09375 187.105469 98.628906 194.042969 98.933594 C 189.253906 103.847656 184.222656 104.953125 179.003906 102.191406 C 173.480469 105.75 161.636719 119.078125 152.859375 100.039062 C 152.058594 103.726562 153.164062 109.867188 156.847656 112.324219 C 145.125 110.726562 121.921875 129.949219 119.285156 143.335938 Z M 175.261719 118.09375 C 172.804688 116.558594 171.699219 112.078125 177.898438 105.320312 C 176.671875 109.804688 176.796875 112.875 178.515625 114.71875 L 180.539062 112.691406 L 180.355469 115.761719 C 180.664062 115.945312 180.847656 115.945312 180.96875 116.070312 C 180.785156 117.910156 179.25 118.832031 177.59375 118.832031 L 177.410156 114.964844 Z M 175.261719 118.09375 " fill-opacity="1" fill-rule="evenodd"/></g><g clip-path="url(#a231cf61ec)"><path fill="#007664" d="M 45.078125 64.914062 C 59.992188 56.4375 76.132812 50.910156 92.585938 48.453125 C 91.480469 46.613281 90.25 44.890625 89.023438 43.234375 C 72.757812 45.875 56.921875 51.523438 42.191406 60 C 40.351562 60.921875 39.246094 62.761719 39.246094 64.914062 C 39.246094 72.589844 39.859375 80.140625 41.085938 87.511719 L 41.578125 88.003906 C 42.804688 85.976562 44.339844 84.320312 46.367188 83.214844 C 45.566406 77.195312 45.078125 71.054688 45.078125 64.914062 Z M 119.285156 143.335938 C 116.335938 123.375 109.585938 113.671875 99.765625 103.234375 C 103.753906 103.417969 107.746094 102.742188 110.691406 100.898438 C 112.101562 99.980469 112.53125 98.136719 111.796875 96.601562 C 107.316406 87.695312 99.640625 83.828125 90.4375 83.519531 C 91.234375 77.808594 90.742188 71.851562 87.058594 67.367188 C 80 58.464844 65.085938 59.816406 55.265625 61.535156 C 53.546875 61.839844 52.503906 63.253906 52.503906 64.914062 C 52.503906 66.632812 53.730469 67.859375 55.265625 68.167969 C 59.132812 68.78125 68.03125 70.316406 69.566406 74.617188 C 70.363281 76.640625 69.382812 78.914062 68.460938 81.0625 C 61.710938 78.300781 53.425781 85.667969 50.476562 91.382812 C 50.171875 89.539062 50.664062 87.511719 52.011719 85.546875 C 47.714844 86.039062 45.078125 89.414062 43.417969 93.101562 C 37.28125 92.609375 35.441406 86.160156 34.644531 80.941406 C 34.335938 79.527344 33.230469 78.484375 31.878906 78.175781 C 30.347656 77.992188 28.933594 78.792969 28.320312 80.203125 C 22.488281 92.671875 26.785156 101.574219 37.835938 106.796875 C 36.914062 109.25 37.035156 112.015625 38.324219 114.65625 L 35.6875 122.027344 C 29.734375 122.703125 28.199219 130.378906 33.109375 133.449219 C 33.90625 137.746094 36.484375 141.003906 41.085938 140.816406 C 41.703125 141.738281 42.5 142.351562 43.542969 142.96875 C 50.171875 146.34375 63.675781 132.21875 63.183594 150.828125 C 65.210938 128.226562 45.996094 146.039062 43.050781 137.441406 C 45.382812 137.132812 47.226562 135.597656 48.574219 132.835938 C 54.589844 137.441406 62.570312 133.324219 72.269531 120.246094 C 71.777344 124.238281 68.402344 129.148438 62.140625 134.859375 C 82.089844 133.941406 89.636719 123.191406 84.542969 102.558594 C 92.214844 111.15625 94.855469 122.394531 92.214844 136.519531 C 92.214844 126.078125 91.296875 119.9375 89.453125 117.789062 C 88.960938 128.535156 86.816406 137.625 82.703125 144.992188 C 84.421875 137.441406 85.035156 132.40625 84.542969 129.761719 C 76.992188 138.976562 75.152344 149.601562 77.484375 160.960938 C 86.691406 170.785156 97.308594 179.382812 109.277344 186.324219 C 110.199219 186.816406 111.121094 187.121094 112.226562 187.121094 C 117.136719 174.347656 119.46875 159.792969 119.285156 143.335938 Z M 43.542969 96.90625 C 45.996094 102.433594 39.367188 106.917969 40.902344 112.261719 C 39.367188 110.234375 39.367188 107.65625 41.085938 104.585938 C 29.734375 99.792969 25.128906 91.503906 31.144531 81.984375 C 30.53125 86.714844 33.722656 96.90625 43.542969 96.90625 Z M 48.945312 122.703125 C 51.277344 124.238281 52.011719 127.183594 50.785156 129.640625 C 51.277344 127.308594 50.171875 125.035156 48.023438 124.113281 C 45.875 123.191406 43.417969 123.929688 42.191406 125.957031 C 41.085938 125.464844 38.203125 125.957031 37.710938 125.773438 L 38.9375 122.824219 C 40.351562 122.640625 41.273438 123.007812 41.703125 123.4375 C 43.726562 121.472656 46.613281 121.164062 48.945312 122.703125 Z M 67.359375 99.792969 C 65.210938 104.707031 66.4375 107.042969 60.113281 108.085938 C 59.378906 102.128906 61.832031 101.515625 67.359375 99.792969 Z M 46.917969 127.308594 C 47.714844 128.226562 47.839844 129.761719 47.226562 130.867188 C 47.53125 127.308594 44.15625 127.183594 44.15625 128.71875 C 44.15625 129.210938 44.464844 129.519531 44.953125 129.640625 C 45.136719 130.253906 44.648438 130.867188 44.035156 130.867188 C 43.113281 130.5625 42.5 129.949219 42.316406 129.027344 C 42.191406 126.570312 45.261719 125.648438 46.917969 127.308594 Z M 103.324219 96.417969 C 97.308594 98.136719 95.039062 97.828125 96.082031 95.3125 C 94.855469 93.898438 90.988281 92.976562 84.542969 92.671875 C 90.867188 90.890625 97.066406 92.117188 103.324219 96.417969 Z M 108.113281 96.601562 C 100.871094 88.433594 91.355469 87.511719 68.339844 91.503906 C 83.253906 70.4375 65.269531 66.449219 56.371094 64.726562 C 80.800781 60.550781 90.925781 67.984375 86.507812 87.019531 C 96.390625 86.097656 103.632812 89.355469 108.113281 96.601562 Z M 108.113281 96.601562 " fill-opacity="1" fill-rule="evenodd"/></g><g clip-path="url(#0e01b891e1)"><g clip-path="url(#ad3dcfc802)"><path fill="#0571d3" d="M 90.550781 148.332031 L 97.964844 148.332031 L 97.964844 155.601562 L 90.550781 155.601562 Z M 90.550781 148.332031 " fill-opacity="1" fill-rule="nonzero"/></g></g><g clip-path="url(#eb1a7674a5)"><g clip-path="url(#273e549e0e)"><path fill="#0571d3" d="M 103.292969 164.148438 L 110.707031 164.148438 L 110.707031 171.417969 L 103.292969 171.417969 Z M 103.292969 164.148438 " fill-opacity="1" fill-rule="nonzero"/></g></g></svg>