<svg xmlns="http://www.w3.org/2000/svg" xmlns:xlink="http://www.w3.org/1999/xlink" width="500" zoomAndPan="magnify" viewBox="0 0 375 374.999991" height="500" preserveAspectRatio="xMidYMid meet" version="1.0"><defs><clipPath id="c6153424c9"><path d="M 0 31.40625 L 375 31.40625 L 375 343.40625 L 0 343.40625 Z M 0 31.40625 " clip-rule="nonzero"/></clipPath></defs><g clip-path="url(#c6153424c9)"><path fill="#252527" d="M 21.394531 343.414062 C 21.316406 343.414062 21.238281 343.335938 21.238281 343.335938 C 20.851562 341.707031 20.851562 340.003906 19.921875 338.609375 C 20.308594 337.367188 19.066406 336.75 18.679688 335.816406 C 17.984375 334.035156 17.050781 332.328125 16.199219 330.625 C 14.339844 326.980469 12.480469 323.339844 11.085938 319.539062 C 10.230469 317.214844 9.378906 314.8125 8.605469 312.488281 C 6.820312 307.140625 4.574219 301.867188 2.636719 296.597656 C 1.78125 294.273438 0.929688 291.867188 0.386719 289.464844 C 0.234375 289 0 288.535156 0.234375 287.992188 C 0.773438 287.839844 0.929688 288.304688 1.085938 288.535156 C 2.246094 290.242188 3.253906 292.023438 4.1875 293.808594 C 9.457031 303.652344 14.03125 313.804688 17.671875 324.421875 C 18.371094 326.515625 19.222656 328.53125 20.074219 330.78125 C 20.617188 330.238281 20.464844 329.695312 20.464844 329.230469 C 20.308594 323.957031 20.308594 318.6875 20.464844 313.417969 C 20.695312 303.882812 21.082031 294.347656 21.78125 284.894531 C 23.175781 266.601562 25.8125 248.539062 30.617188 230.789062 C 35.5 212.730469 41.546875 195.058594 49.839844 178.160156 C 57.359375 162.734375 66.273438 148.164062 76.734375 134.519531 C 82.9375 126.460938 89.601562 118.863281 96.734375 111.578125 C 109.757812 98.324219 124.019531 86.542969 139.597656 76.386719 C 153.238281 67.472656 167.578125 60.03125 182.539062 53.753906 C 197.113281 47.628906 212.070312 42.671875 227.417969 39.183594 C 236.953125 37.011719 246.640625 35.304688 256.332031 34.144531 C 271.910156 32.207031 287.644531 31.507812 303.300781 31.894531 C 318.726562 32.285156 334.074219 33.757812 349.1875 37.246094 C 357.171875 39.105469 365.078125 41.429688 372.753906 44.453125 C 373.449219 44.683594 374.148438 44.996094 374.691406 45.460938 C 374.921875 45.617188 375 45.847656 374.921875 46.082031 C 374.84375 46.3125 374.613281 46.46875 374.378906 46.390625 C 373.835938 46.390625 373.371094 46.3125 372.828125 46.234375 C 368.257812 45.382812 363.839844 44.066406 359.265625 42.980469 C 350.117188 40.808594 340.816406 39.183594 331.515625 38.175781 C 317.097656 36.546875 302.683594 36.160156 288.1875 36.625 C 264.777344 37.320312 241.679688 40.578125 219.046875 46.777344 C 206.179688 50.265625 193.625 54.761719 181.375 60.109375 C 167.035156 66.386719 153.394531 73.753906 140.449219 82.589844 C 132.855469 87.703125 125.644531 93.285156 118.746094 99.253906 C 112.3125 104.835938 106.113281 110.648438 100.300781 116.847656 C 92.394531 125.140625 85.183594 134.054688 78.597656 143.433594 C 70.226562 155.292969 63.09375 167.851562 56.972656 180.949219 C 52.785156 189.863281 49.140625 198.933594 45.886719 208.15625 C 39.917969 224.976562 35.5 242.183594 32.089844 259.703125 C 29.84375 271.171875 28.136719 282.722656 26.820312 294.273438 C 25.734375 303.804688 24.882812 313.339844 24.105469 322.875 C 24.027344 323.726562 23.71875 324.5 23.949219 325.355469 C 24.261719 325.355469 24.417969 325.199219 24.492188 325.042969 C 27.902344 318.222656 32.476562 312.175781 37.128906 306.132812 C 40.617188 301.636719 43.792969 296.984375 46.972656 292.257812 C 48.523438 289.929688 50.148438 287.761719 51.933594 285.511719 C 52.164062 285.203125 52.320312 284.816406 52.863281 284.816406 C 53.171875 285.359375 52.707031 285.746094 52.550781 286.210938 C 49.996094 292.335938 46.660156 298.070312 43.25 303.726562 C 39.296875 310.316406 34.878906 316.519531 31.003906 323.105469 C 28.757812 326.828125 26.507812 330.546875 24.417969 334.421875 C 23.019531 336.980469 22.011719 339.539062 21.859375 342.484375 C 21.859375 342.792969 21.703125 343.179688 21.625 343.492188 C 21.625 343.257812 21.46875 343.335938 21.394531 343.414062 Z M 21.394531 343.414062 " fill-opacity="1" fill-rule="evenodd"/></g></svg>