<svg xmlns="http://www.w3.org/2000/svg" xmlns:xlink="http://www.w3.org/1999/xlink" width="500" zoomAndPan="magnify" viewBox="0 0 375 374.999991" height="500" preserveAspectRatio="xMidYMid meet" version="1.0"><defs><clipPath id="31ada96925"><path d="M 0 31.40625 L 375 31.40625 L 375 343.40625 L 0 343.40625 Z M 0 31.40625 " clip-rule="nonzero"/></clipPath></defs><g clip-path="url(#31ada96925)"><path fill="#252527" d="M 353.605469 343.414062 C 353.683594 343.414062 353.761719 343.335938 353.761719 343.335938 C 354.148438 341.707031 354.148438 340.003906 355.078125 338.609375 C 354.691406 337.367188 355.933594 336.75 356.320312 335.816406 C 357.015625 334.035156 357.949219 332.328125 358.800781 330.625 C 360.660156 326.980469 362.519531 323.339844 363.914062 319.539062 C 364.769531 317.214844 365.621094 314.8125 366.394531 312.488281 C 368.179688 307.140625 370.425781 301.867188 372.363281 296.597656 C 373.21875 294.273438 374.070312 291.867188 374.613281 289.464844 C 374.765625 289 375 288.535156 374.765625 287.992188 C 374.226562 287.839844 374.070312 288.304688 373.914062 288.535156 C 372.753906 290.242188 371.746094 292.023438 370.8125 293.808594 C 365.542969 303.652344 360.96875 313.804688 357.328125 324.421875 C 356.628906 326.515625 355.777344 328.53125 354.925781 330.78125 C 354.382812 330.238281 354.535156 329.695312 354.535156 329.230469 C 354.691406 323.957031 354.691406 318.6875 354.535156 313.417969 C 354.304688 303.882812 353.917969 294.347656 353.21875 284.894531 C 351.824219 266.601562 349.1875 248.539062 344.382812 230.789062 C 339.5 212.730469 333.453125 195.058594 325.160156 178.160156 C 317.640625 162.734375 308.726562 148.164062 298.265625 134.519531 C 292.0625 126.460938 285.398438 118.863281 278.265625 111.578125 C 265.242188 98.324219 250.980469 86.542969 235.402344 76.386719 C 221.761719 67.472656 207.421875 60.03125 192.460938 53.753906 C 177.886719 47.628906 162.929688 42.671875 147.582031 39.183594 C 138.046875 37.011719 128.359375 35.304688 118.667969 34.144531 C 103.089844 32.207031 87.355469 31.507812 71.699219 31.894531 C 56.273438 32.285156 40.925781 33.757812 25.8125 37.246094 C 17.828125 39.105469 9.921875 41.429688 2.246094 44.453125 C 1.550781 44.683594 0.851562 44.996094 0.308594 45.460938 C 0.078125 45.617188 0 45.847656 0.078125 46.082031 C 0.15625 46.3125 0.386719 46.46875 0.621094 46.390625 C 1.164062 46.390625 1.628906 46.3125 2.171875 46.234375 C 6.742188 45.382812 11.160156 44.066406 15.734375 42.980469 C 24.882812 40.808594 34.183594 39.183594 43.484375 38.175781 C 57.902344 36.546875 72.316406 36.160156 86.8125 36.625 C 110.222656 37.320312 133.320312 40.578125 155.953125 46.777344 C 168.820312 50.265625 181.375 54.761719 193.625 60.109375 C 207.964844 66.386719 221.605469 73.753906 234.550781 82.589844 C 242.144531 87.703125 249.355469 93.285156 256.253906 99.253906 C 262.6875 104.835938 268.886719 110.648438 274.699219 116.847656 C 282.605469 125.140625 289.816406 134.054688 296.402344 143.433594 C 304.773438 155.292969 311.90625 167.851562 318.027344 180.949219 C 322.214844 189.863281 325.859375 198.933594 329.113281 208.15625 C 335.082031 224.976562 339.5 242.183594 342.910156 259.703125 C 345.15625 271.171875 346.863281 282.722656 348.179688 294.273438 C 349.265625 303.804688 350.117188 313.339844 350.894531 322.875 C 350.972656 323.726562 351.28125 324.5 351.050781 325.355469 C 350.738281 325.355469 350.582031 325.199219 350.507812 325.042969 C 347.097656 318.222656 342.523438 312.175781 337.871094 306.132812 C 334.382812 301.636719 331.207031 296.984375 328.027344 292.257812 C 326.476562 289.929688 324.851562 287.761719 323.066406 285.511719 C 322.835938 285.203125 322.679688 284.816406 322.136719 284.816406 C 321.828125 285.359375 322.292969 285.746094 322.445312 286.210938 C 325.003906 292.335938 328.339844 298.070312 331.75 303.726562 C 335.703125 310.316406 340.121094 316.519531 343.996094 323.105469 C 346.242188 326.828125 348.492188 330.546875 350.582031 334.421875 C 351.980469 336.980469 352.988281 339.539062 353.140625 342.484375 C 353.140625 342.792969 353.296875 343.179688 353.375 343.492188 C 353.375 343.257812 353.53125 343.335938 353.605469 343.414062 Z M 353.605469 343.414062 " fill-opacity="1" fill-rule="evenodd"/></g></svg>